# AST/ASF file generated using VICON BodyLanguage
# -----------------------------------------------
:version 1.10
:name VICON
:units
  mass 1.0
  length 0.45
  angle deg
:documentation
   .ast/.asf automatically generated from VICON data using
   VICON BodyBuilder and BodyLanguage model FoxedUp or BRILLIANT.MOD
:root
   order TX TY TZ RX RY RZ
   axis XYZ
   position 0 0 0  
   orientation 0 0 0 
:bonedata
  begin
     id 1 
     name lhipjoint
     direction 0.650112 -0.723553 0.232005 
     length 2.45805 
     axis 0 0 0  XYZ
  end
  begin
     id 2 
     name lfemur
     direction 0.34202 -0.939693 0  
     length 7.00073  
     axis 0 0 20  XYZ
    dof rx ry rz
    limits (-160.0 20.0)
           (-70.0 70.0)
           (-60.0 70.0)
  end
  begin
     id 3 
     name ltibia
     direction 0.34202 -0.939693 0   
     length 7.8748   
     axis 0 0 20   XYZ
    dof rx
    limits (-10.0 170.0)
  end
  begin
     id 4 
     name lfoot
     direction 0.0542825 -0.14914 0.987325   
     length 1.75978   
     axis -90 7.62852e-016 20   XYZ
    dof rx rz
    limits (-45.0 90.0)
           (-70.0 20.0)
  end
  begin
     id 5 
     name ltoes
     direction 1.53509e-011 -4.21906e-011 1   
     length 0.893912   
     axis -90 7.62852e-016 20   XYZ
    dof rx
    limits (-90.0 20.0)
  end
  begin
     id 6 
     name rhipjoint
     direction -0.637897 -0.733345 0.235145   
     length 2.42522  
     axis 0 0 0  XYZ 
  end
  begin
     id 7 
     name rfemur
     direction -0.34202 -0.939693 0   
     length 7.02549   
     axis 0 0 -20   XYZ
    dof rx ry rz
    limits (-160.0 20.0)
           (-70.0 70.0)
           (-70.0 60.0)
  end
  begin
     id 8 
     name rtibia
     direction -0.34202 -0.939693 0   
     length 7.71512   
     axis 0 0 -20   XYZ
    dof rx
    limits (-10.0 170.0)
 end
 begin
     id 9 
     name rfoot
     direction -0.0822618 -0.226012 0.970645   
     length 1.90014  
     axis -90 -7.62852e-016 -20   XYZ
    dof rx rz
    limits (-45.0 90.0)
           (-20.0 70.0)
  end
  begin
     id 10 
     name rtoes
     direction -1.53542e-011 -4.21872e-011 1   
     length 0.957341   
     axis -90 -7.62852e-016 -20   XYZ
    dof rx
    limits (-90.0 20.0)
  end
  begin
     id 11 
     name lowerback
     direction -0.0022947 0.999774 -0.0211557   
     length 1.89909   
     axis 0 0 0   XYZ
    dof rx ry rz
    limits (-20.0 45.0)
           (-30.0 30.0)
           (-30.0 30.0)
  end
  begin
     id 12 
     name upperback
     direction 0.0107737 0.998635 0.0511027   
     length 1.8853   
     axis 0 0 0   XYZ
    dof rx ry rz
    limits (-20.0 45.0)
           (-30.0 30.0)
           (-30.0 30.0)
  end
  begin
     id 13 
     name thorax
     direction 0.011824 0.998136 0.0598754   
     length 1.88911   
     axis 0 0 0   XYZ
    dof rx ry rz
    limits (-20.0 45.0)
           (-30.0 30.0)
           (-30.0 30.0)
  end
  begin
     id 14 
     name lowerneck
     direction -0.0685355 0.990319 0.120714   
     length 1.91222   
     axis 0 0 0   XYZ
    dof rx ry rz
    limits (-20.0 45.0)
           (-30.0 30.0)
           (-30.0 30.0)
  end
  begin
     id 15 
     name upperneck
     direction 0.0886204 0.955665 -0.280805   
     length 1.92526   
     axis 0 0 0   XYZ
    dof rx ry rz
    limits (-20.0 45.0)
           (-30.0 30.0)
           (-30.0 30.0)
  end
  begin
     id 16
     name head
     direction 0.0233423 0.993502 -0.111393  
     length 1.96056  
     axis 0 0 0   XYZ
    dof rx ry rz
    limits (-20.0 45.0)
           (-30.0 30.0)
           (-30.0 30.0)
  end
  begin
     id 17 
     name lclavicle
     direction 0.941873 0.32922 0.0670041  
     length 3.31705  
     axis 0 0 0   XYZ
    dof ry rz
    limits (-20.0 10.0)
           (0.0 20.0)
  end
  begin
     id 18 
     name lhumerus
     direction 1 -4.4898e-011 3.38707e-028   
     length 5.29277   
     axis 180 -30 -90   XYZ
    dof rx ry rz
    limits (-60.0 90.0)
           (-90.0 90.0)
           (-90.0 90.0)
  end
  begin
     id 19
     name lradius
     direction 1 -4.48952e-011 1.63213e-028   
     length 2.85226   
     axis 180 -30 -90   XYZ
    dof rx
    limits (-10.0 170.0)
  end
  begin
     id 20
     name lwrist
     direction 1 -4.49001e-011 1.27856e-027   
     length 1.42613   
     axis -1.61767e-015 90 90   XYZ
    dof ry
    limits (-180.0 0.0)
 end
  begin
     id 21 
     name lhand
     direction 1 -4.48976e-011 2.55931e-027   
     length 0.602097   
     axis -1.63363e-015 90 90   XYZ
    dof rx rz
    limits (-90.0 90.0)
           (-45.0 45.0)
  end
  begin
     id 22 
     name lfingers
     direction 1 -4.48986e-011 5.11684e-027   
     length 0.485426   
     axis -3.26723e-015 90 90   XYZ
    dof rx
    limits (0.0 90.0)
  end
  begin
     id 23
     name lthumb
     direction 0.707107 -6.34915e-011 0.707107   
     length 0.696978   
     axis -90 45 -2.25915e-014   XYZ
    dof rx rz
    limits (-45.0 45.0)
           (-45.0 45.0)
  end
  begin
     id 24 
     name rclavicle
     direction -0.939974 0.327078 0.0973096   
     length 3.10337  
     axis 0 0 0   XYZ 
    dof ry rz
    limits (-10.0 20.0)
           (-20.0 0.0)
  end
  begin
     id 25 
     name rhumerus
     direction -1 -4.48975e-011 1.83745e-027  
     length 5.13304   
     axis 180 30 90   XYZ
    dof rx ry rz
    limits (-90.0 60.0)
           (-90.0 90.0)
           (-90.0 90.0)
  end
  begin
     id 26 
     name rradius
     direction -1 -4.48977e-011 7.1775e-029   
     length 2.74305   
     axis 180 30 90   XYZ
    dof rx
    limits (-10.0 170.0)
  end
  begin
     id 27 
     name rwrist
     direction -1 -4.48977e-011 1.27963e-027   
     length 1.37152   
     axis -1.61767e-015 -90 -90   XYZ
    dof ry
    limits (-180.0 0.0)
  end
  begin
     id 28
     name rhand
     direction -1 -4.4888e-011 2.56782e-027   
     length 0.767976   
     axis -1.63363e-015 -90 -90   XYZ
    dof rx rz
    limits (-90.0 90.0)
           (-45.0 45.0)
  end
  begin
     id 29
     name rfingers
     direction -1 -4.48947e-011 5.12384e-027   
     length 0.619162   
     axis -3.26723e-015 -90 -90   XYZ
    dof rx
    limits (0.0 90.0)
  end
  begin
     id 30
     name rthumb
     direction -0.707107 -6.34857e-011 0.707107   
     length 0.888997   
     axis -90 -45 2.25915e-014   XYZ
    dof rx rz
    limits (-45.0 45.0)
           (-45.0 45.0)
  end
:hierarchy
  begin
    root lhipjoint rhipjoint lowerback
    lhipjoint lfemur
    lfemur ltibia
    ltibia lfoot
    lfoot ltoes
    rhipjoint rfemur
    rfemur rtibia
    rtibia rfoot
    rfoot rtoes
    lowerback upperback
    upperback thorax
    thorax lowerneck lclavicle rclavicle
    lowerneck upperneck
    upperneck head
    lclavicle lhumerus
    lhumerus lradius
    lradius lwrist
    lwrist lhand lthumb
    lhand lfingers
    rclavicle rhumerus
    rhumerus rradius
    rradius rwrist
    rwrist rhand rthumb
    rhand rfingers
  end

#!OML:ASF F:\VICON\USERDATA\INSTALL\rory3\rory3.ASF
:FULLY-SPECIFIED
:DEGREES
564
root 0.969083 17.2719 -0.932207 22.5354 -0.429828 4.54271
lowerback 11.6886 1.15427 7.9803
upperback -1.24497 3.32522 8.16253
thorax -8.00973 1.46145 3.6598
lowerneck -5.59605 -9.35366 -15.291
upperneck 9.43805 -12.8022 14.9501
head 5.73197 -6.06131 6.20024
rclavicle -1.74931e-014 -3.18055e-014
rhumerus -60.4792 -43.8881 -1.85318
rradius 68.6762
rwrist -16.8981
rhand -32.8572 -8.45931
rfingers 7.12502
rthumb -6.07631 -38.3522
lclavicle -1.74931e-014 -3.18055e-014
lhumerus -42.0425 -22.8606 33.433
lradius 54.314
lwrist 53.2937
lhand -15.5818 43.1111
lfingers 7.12502
lthumb 10.6036 72.8235
rfemur -34.8263 7.41291 6.73708
rtibia 27.5585
rfoot -13.3128 -15.3749
rtoes -22.8996
lfemur -33.6494 -10.1985 -22.2459
ltibia 23.4194
lfoot -11.5218 5.26086
ltoes -16.7239
565
root 0.982824 17.2691 -0.928295 22.7306 -0.745867 4.65791
lowerback 11.5942 1.10884 7.90985
upperback -1.28191 3.25149 8.2354
thorax -8.00381 1.4307 3.79422
lowerneck -5.65181 -9.25402 -15.2829
upperneck 9.44368 -12.6463 14.844
head 5.71053 -5.98878 6.18046
rclavicle -1.43125e-014 -3.49861e-014
rhumerus -60.4189 -43.8811 -1.83287
rradius 68.572
rwrist -16.7465
rhand -32.6765 -8.50234
rfingers 7.12502
rthumb -5.90193 -38.4001
lclavicle -1.43125e-014 -3.49861e-014
lhumerus -42.2014 -22.7789 33.484
lradius 54.0426
lwrist 53.0395
lhand -15.3163 42.9271
lfingers 7.12502
lthumb 10.8596 72.6263
rfemur -35.1799 7.46333 6.45437
rtibia 27.6732
rfoot -13.2093 -15.3551
rtoes -23.6458
lfemur -33.7991 -10.1252 -22.4478
ltibia 23.3553
lfoot -11.5013 5.42846
ltoes -17.0414
566
root 0.993867 17.2673 -0.924805 22.8337 -1.03596 4.77491
lowerback 11.6304 1.07256 7.84225
upperback -1.30108 3.20503 8.29096
thorax -8.05252 1.41142 3.90163
lowerneck -5.79052 -9.22952 -15.1723
upperneck 9.47289 -12.5819 14.636
head 5.71149 -5.95818 6.09628
rclavicle 3.33958e-014 4.45278e-014
rhumerus -60.4916 -43.882 -1.69679
rradius 68.4465
rwrist -16.561
rhand -32.4749 -8.42037
rfingers 7.12502
rthumb -5.70727 -38.3235
lclavicle 3.33958e-014 4.45278e-014
lhumerus -42.2656 -22.8603 33.5673
lradius 53.7858
lwrist 52.9753
lhand -15.3237 42.8584
lfingers 7.12502
lthumb 10.8526 72.5579
rfemur -35.41 7.59567 6.17414
rtibia 27.7778
rfoot -13.1666 -15.358
rtoes -23.697
lfemur -33.8338 -9.96224 -22.6967
ltibia 23.2513
lfoot -11.4849 5.52841
ltoes -17.4557
567
root 1.0082 17.2665 -0.921402 22.95 -1.28882 4.90619
lowerback 11.6392 1.03222 7.8734
upperback -1.31748 3.15908 8.30247
thorax -8.07427 1.38707 3.90585
lowerneck -5.93707 -9.24702 -15.104
upperneck 9.48074 -12.5807 14.5281
head 5.72701 -5.95457 6.0439
rclavicle 1.59028e-015 -9.85972e-014
rhumerus -60.5907 -43.8657 -1.57912
rradius 68.3155
rwrist -16.4369
rhand -32.2546 -8.51065
rfingers 7.12502
rthumb -5.49454 -38.4194
lclavicle 1.59028e-015 -9.85972e-014
lhumerus -42.1729 -22.908 33.6123
lradius 53.4411
lwrist 52.8988
lhand -15.4005 42.5316
lfingers 7.12502
lthumb 10.7785 72.2351
rfemur -35.584 7.73321 5.8589
rtibia 27.7718
rfoot -13.1565 -15.389
rtoes -23.8043
lfemur -33.8949 -9.89055 -22.9315
ltibia 23.1814
lfoot -11.4926 5.62604
ltoes -17.5265
568
root 1.02404 17.2666 -0.911017 23.0024 -1.65623 5.04524
lowerback 11.6534 0.997171 7.89354
upperback -1.32984 3.11611 8.28612
thorax -8.09322 1.3638 3.88495
lowerneck -5.9705 -9.20376 -15.0371
upperneck 9.4877 -12.5133 14.4385
head 5.71383 -5.92278 6.01057
rclavicle -2.06736e-014 1.59028e-014
rhumerus -60.5443 -43.6145 -1.65632
rradius 68.1216
rwrist -16.5147
rhand -32.1443 -8.46072
rfingers 7.12502
rthumb -5.38807 -38.3722
lclavicle -2.06736e-014 1.59028e-014
lhumerus -42.1756 -23.0148 33.6553
lradius 53.1033
lwrist 52.7485
lhand -15.3315 42.2192
lfingers 7.12502
lthumb 10.845 71.9192
rfemur -35.6783 7.85316 5.53746
rtibia 27.7163
rfoot -13.0914 -15.3254
rtoes -24.3871
lfemur -33.8502 -9.78668 -23.2109
ltibia 23.1138
lfoot -11.5984 5.75719
ltoes -16.9608
569
root 1.04032 17.2705 -0.895614 22.9767 -2.06995 4.89187
lowerback 11.7031 0.99161 8.14798
upperback -1.29334 3.14907 8.3365
thorax -8.07384 1.36884 3.79161
lowerneck -5.91163 -9.14958 -14.9922
upperneck 9.42214 -12.4406 14.4059
head 5.66713 -5.89087 6.00397
rclavicle 6.36111e-015 6.36111e-015
rhumerus -60.4652 -43.1377 -1.87662
rradius 68.0973
rwrist -16.7777
rhand -32.0246 -8.37447
rfingers 7.12502
rthumb -5.27252 -38.2889
lclavicle 6.36111e-015 6.36111e-015
lhumerus -42.2059 -23.105 33.6813
lradius 52.8306
lwrist 52.612
lhand -15.1882 42.1468
lfingers 7.12502
lthumb 10.9832 71.8395
rfemur -35.6723 8.08063 5.5512
rtibia 27.5966
rfoot -13.0151 -15.1782
rtoes -24.79
lfemur -33.7285 -9.60415 -23.1898
ltibia 23.0885
lfoot -11.6952 5.83915
ltoes -15.5492
570
root 1.05509 17.2706 -0.885854 22.9866 -2.4897 4.81473
lowerback 11.7848 0.988215 8.25941
upperback -1.24832 3.16947 8.39809
thorax -8.07087 1.37465 3.79206
lowerneck -5.98616 -9.10076 -14.8889
upperneck 9.36646 -12.3532 14.2805
head 5.6342 -5.84901 5.95376
rclavicle 3.18055e-014 8.5875e-014
rhumerus -60.4414 -42.7476 -2.07325
rradius 68.3477
rwrist -17.0003
rhand -31.8276 -8.54763
rfingers 7.12502
rthumb -5.08226 -38.4667
lclavicle 3.18055e-014 8.5875e-014
lhumerus -42.2998 -23.0767 33.7581
lradius 52.7107
lwrist 52.4359
lhand -15.2312 42.2486
lfingers 7.12502
lthumb 10.9418 71.9435
rfemur -35.7234 8.36418 5.44158
rtibia 27.4692
rfoot -12.8961 -15.1306
rtoes -24.8743
lfemur -33.6678 -9.42319 -23.2522
ltibia 23.0602
lfoot -11.753 6.03478
ltoes -15.1984
571
root 1.06933 17.2713 -0.881807 23.077 -2.7942 4.69293
lowerback 11.8814 0.947524 8.44554
upperback -1.25131 3.15918 8.44944
thorax -8.12479 1.36035 3.74681
lowerneck -6.18387 -9.04651 -14.606
upperneck 9.39133 -12.2565 14.0529
head 5.6276 -5.7957 5.83779
rclavicle 2.06736e-014 3.18055e-015
rhumerus -60.5513 -42.7696 -1.99448
rradius 68.2512
rwrist -16.8494
rhand -31.5243 -8.59344
rfingers 7.12502
rthumb -4.78944 -38.5193
lclavicle 2.06736e-014 3.18055e-015
lhumerus -42.3716 -22.967 33.7402
lradius 52.5631
lwrist 52.1315
lhand -15.1314 42.439
lfingers 7.12502
lthumb 11.0381 72.1288
rfemur -35.8399 8.6067 5.37878
rtibia 27.3253
rfoot -12.8252 -15.0616
rtoes -24.9982
lfemur -33.7354 -9.27345 -23.2245
ltibia 23.0638
lfoot -11.7899 6.17034
ltoes -15.2936
572
root 1.08424 17.2716 -0.874251 23.1146 -3.16388 4.76152
lowerback 11.9921 0.928323 8.45451
upperback -1.25404 3.15188 8.4693
thorax -8.19266 1.35467 3.76468
lowerneck -6.26693 -9.02398 -14.6319
upperneck 9.35036 -12.2062 14.0318
head 5.62198 -5.7707 5.83745
rclavicle -2.70347e-014 -6.36111e-014
rhumerus -60.7251 -43.0563 -1.53889
rradius 67.7214
rwrist -16.4449
rhand -30.9691 -8.42913
rfingers 7.12502
rthumb -4.25325 -38.3664
lclavicle -2.70347e-014 -6.36111e-014
lhumerus -42.4318 -22.9129 33.7956
lradius 52.3499
lwrist 51.8328
lhand -14.8985 42.4479
lfingers 7.12502
lthumb 11.2627 72.1256
rfemur -35.9165 8.68026 5.17045
rtibia 27.2476
rfoot -12.77 -14.9397
rtoes -25.3952
lfemur -33.72 -9.21542 -23.4071
ltibia 23.0442
lfoot -11.8808 6.33568
ltoes -15.1648
573
root 1.09744 17.2722 -0.865999 23.1264 -3.51781 4.75824
lowerback 12.1158 0.928688 8.55658
upperback -1.25037 3.18449 8.48192
thorax -8.25639 1.36364 3.71519
lowerneck -6.22049 -9.068 -14.8772
upperneck 9.24381 -12.2629 14.2363
head 5.61932 -5.79935 5.93843
rclavicle 4.45278e-014 5.725e-014
rhumerus -61.025 -43.1563 -1.11492
rradius 67.3719
rwrist -16.2209
rhand -30.6133 -8.30019
rfingers 7.12502
rthumb -3.9097 -38.2441
lclavicle 4.45278e-014 5.725e-014
lhumerus -42.3648 -22.9909 33.8301
lradius 52.0728
lwrist 51.6481
lhand -14.6811 42.3233
lfingers 7.12502
lthumb 11.4723 71.9894
rfemur -35.979 8.86629 5.0135
rtibia 27.1882
rfoot -12.7546 -14.839
rtoes -25.4839
lfemur -33.6744 -9.12544 -23.5059
ltibia 23.0296
lfoot -11.9837 6.47203
ltoes -14.4659
574
root 1.11042 17.2707 -0.857559 23.1599 -3.9144 4.85338
lowerback 12.1769 0.927145 8.56003
upperback -1.23322 3.18519 8.44708
thorax -8.26999 1.36187 3.67405
lowerneck -6.17904 -9.0652 -14.9143
upperneck 9.10363 -12.2578 14.3217
head 5.57659 -5.79702 5.97464
rclavicle 7.95139e-015 -5.725e-014
rhumerus -61.2501 -43.0829 -0.956566
rradius 67.2392
rwrist -16.2175
rhand -30.3906 -8.31643
rfingers 7.12502
rthumb -3.69464 -38.2642
lclavicle 7.95139e-015 -5.725e-014
lhumerus -42.3022 -23.0476 33.8393
lradius 51.8691
lwrist 51.4188
lhand -14.3782 42.1873
lfingers 7.12502
lthumb 11.7644 71.8369
rfemur -36.0901 8.99484 4.75346
rtibia 27.1398
rfoot -12.7565 -14.7341
rtoes -25.3764
lfemur -33.6628 -8.93199 -23.7676
ltibia 23.0269
lfoot -12.0411 6.57946
ltoes -14.5038
575
root 1.12341 17.2697 -0.852859 23.2098 -4.29602 4.88732
lowerback 12.2526 0.916484 8.60992
upperback -1.217 3.18643 8.45448
thorax -8.29395 1.35905 3.65358
lowerneck -6.15273 -9.02797 -14.8358
upperneck 8.9515 -12.1934 14.242
head 5.50526 -5.76988 5.94494
rclavicle 1.27222e-014 -6.67916e-014
rhumerus -61.4226 -43.0194 -0.788315
rradius 67.0675
rwrist -16.1818
rhand -30.0935 -8.08772
rfingers 7.12502
rthumb -3.4078 -38.0402
lclavicle 1.27222e-014 -6.67916e-014
lhumerus -42.3313 -23.0225 33.9047
lradius 51.6973
lwrist 51.2451
lhand -14.2897 41.9939
lfingers 7.12502
lthumb 11.8497 71.6386
rfemur -36.2225 9.1646 4.54135
rtibia 27.0597
rfoot -12.7127 -14.6173
rtoes -25.3297
lfemur -33.7133 -8.79059 -23.9232
ltibia 23.075
lfoot -12.1427 6.73912
ltoes -14.446
576
root 1.13255 17.2692 -0.853606 23.3194 -4.71243 4.73749
lowerback 12.393 0.935223 8.67835
upperback -1.21811 3.24961 8.55837
thorax -8.38105 1.38612 3.71751
lowerneck -6.09416 -8.99064 -14.8305
upperneck 8.79419 -12.1233 14.1458
head 5.42967 -5.74458 5.92346
rclavicle 0 -2.8625e-014
rhumerus -61.4483 -42.9629 -0.628032
rradius 66.8689
rwrist -16.1029
rhand -29.8303 -8.19207
rfingers 7.12502
rthumb -3.15354 -38.1485
lclavicle 0 -2.8625e-014
lhumerus -42.4114 -22.9171 34.051
lradius 51.4855
lwrist 51.0413
lhand -14.2817 41.9749
lfingers 7.12502
lthumb 11.8575 71.6192
rfemur -36.4582 9.5939 4.43
rtibia 26.9543
rfoot -12.6464 -14.6107
rtoes -25.0346
lfemur -33.8588 -8.62872 -23.837
ltibia 23.0967
lfoot -12.1665 6.94769
ltoes -14.0146
577
root 1.13759 17.2694 -0.851468 23.3241 -5.14086 4.5678
lowerback 12.656 0.943311 8.67262
upperback -1.20845 3.30687 8.68293
thorax -8.53253 1.41306 3.84575
lowerneck -6.01679 -8.92578 -14.8148
upperneck 8.62442 -12.0192 14.0561
head 5.34189 -5.70283 5.9072
rclavicle -7.95139e-015 -7.63333e-014
rhumerus -61.4049 -42.9157 -0.443851
rradius 66.6254
rwrist -16.0401
rhand -29.5606 -8.60028
rfingers 7.12502
rthumb -2.89309 -38.5604
lclavicle -7.95139e-015 -7.63333e-014
lhumerus -42.5481 -22.8746 34.1895
lradius 51.3294
lwrist 50.8388
lhand -14.1486 42.068
lfingers 7.12502
lthumb 11.9858 71.7048
rfemur -36.5478 10.1461 4.34656
rtibia 26.8059
rfoot -12.6061 -14.7009
rtoes -24.5123
lfemur -33.8409 -8.4291 -23.743
ltibia 23.0709
lfoot -12.1846 7.14556
ltoes -13.5894
578
root 1.14255 17.2755 -0.835394 23.1207 -5.44437 4.61207
lowerback 12.8888 0.884494 8.55962
upperback -1.09748 3.23825 8.77334
thorax -8.55602 1.38777 4.01816
lowerneck -6.12945 -8.89585 -14.8165
upperneck 8.56313 -11.9517 14.0028
head 5.32888 -5.66905 5.89335
rclavicle -4.92986e-014 -2.22639e-014
rhumerus -61.4359 -42.9466 -0.23154
rradius 66.4387
rwrist -16.0028
rhand -29.3868 -8.82973
rfingers 7.12502
rthumb -2.72529 -38.7921
lclavicle -4.92986e-014 -2.22639e-014
lhumerus -42.618 -22.8314 34.3413
lradius 51.1673
lwrist 50.7326
lhand -14.0407 42.2285
lfingers 7.12502
lthumb 12.0899 71.8593
rfemur -36.2754 10.5427 4.15981
rtibia 26.6474
rfoot -12.6877 -14.8107
rtoes -23.8652
lfemur -33.4914 -8.27122 -23.9353
ltibia 23.0236
lfoot -12.3633 7.27613
ltoes -13.5437
